<?xml version="1.0" encoding="UTF-8"?>
<svg version="1.1" xmlns="http://www.w3.org/2000/svg" width="256" height="256">
<path d="M0 0 C84.48 0 168.96 0 256 0 C256 84.48 256 168.96 256 256 C171.52 256 87.04 256 0 256 C0 171.52 0 87.04 0 0 Z " fill="#000000" transform="translate(0,0)"/>
<path d="M0 0 C0.66 0 1.32 0 2 0 C2 40.26 2 80.52 2 122 C-2.28854894 123.07213723 -2.87806955 122.95875942 -6.69140625 121.296875 C-7.62186768 120.89927979 -8.5523291 120.50168457 -9.51098633 120.09204102 C-10.51798584 119.64916748 -11.52498535 119.20629395 -12.5625 118.75 C-14.74427181 117.81519201 -16.92658373 116.88164381 -19.109375 115.94921875 C-20.24439453 115.46114746 -21.37941406 114.97307617 -22.54882812 114.47021484 C-28.1097648 112.10123064 -33.7104953 109.83225661 -39.3125 107.5625 C-41.5703577 106.64464242 -43.8281698 105.72667268 -46.0859375 104.80859375 C-47.21612305 104.34952637 -48.34630859 103.89045898 -49.51074219 103.41748047 C-55.4874802 100.98948292 -61.46258355 98.55747587 -67.4375 96.125 C-68.5200708 95.68486572 -69.6026416 95.24473145 -70.71801758 94.79125977 C-75.92655326 92.67114578 -81.12741169 90.53473194 -86.31640625 88.3671875 C-90.69614439 86.53790791 -95.08766193 84.74903491 -99.5 83 C-103.8798974 81.26382445 -108.23707022 79.48603819 -112.58203125 77.6640625 C-117.05006381 75.79567614 -121.53711585 73.98613868 -126.04296875 72.2109375 C-127.21794922 71.74429688 -128.39292969 71.27765625 -129.60351562 70.796875 C-132.032655 69.83316194 -134.46507336 68.87768054 -136.90039062 67.9296875 C-138.06119141 67.465625 -139.22199219 67.0015625 -140.41796875 66.5234375 C-141.46750732 66.11013184 -142.5170459 65.69682617 -143.59838867 65.27099609 C-146 64 -146 64 -147 61 C-110.7 61 -74.4 61 -37 61 C-36.34 59.35 -35.68 57.7 -35 56 C-33.88405789 54.0206974 -32.72755386 52.06400069 -31.54296875 50.125 C-31.20346695 49.56705246 -30.86396515 49.00910492 -30.51417542 48.43424988 C-29.4090941 46.62047562 -28.29849831 44.81015487 -27.1875 43 C-26.42001464 41.74403869 -25.65276406 40.48793387 -24.88574219 39.23168945 C-22.95925388 36.07919193 -21.02759154 32.92990287 -19.09393311 29.78179932 C-18.06414623 28.10448144 -17.03616334 26.42605639 -16.00830078 24.74755859 C-14.25910006 21.8919942 -12.50576574 19.03903154 -10.75 16.1875 C-10.23848389 15.35412109 -9.72696777 14.52074219 -9.19995117 13.66210938 C-6.30056209 8.97517424 -3.37635025 4.36014885 0 0 Z " fill="#FC6E29" transform="translate(190,69)"/>
<path d="M0 0 C0.66 0 1.32 0 2 0 C2 40.26 2 80.52 2 122 C-2.40690676 123.10172669 -3.20579101 122.82544916 -7.203125 121.12890625 C-8.1828125 120.71962891 -9.1625 120.31035156 -10.171875 119.88867188 C-11.18765625 119.45103516 -12.2034375 119.01339844 -13.25 118.5625 C-14.28125 118.12873047 -15.3125 117.69496094 -16.375 117.24804688 C-18.92111007 116.17538013 -21.46231711 115.09241991 -24 114 C-23.505 113.01 -23.505 113.01 -23 112 C-22.34 112 -21.68 112 -21 112 C-21 112.66 -21 113.32 -21 114 C-19.88625 114.061875 -18.7725 114.12375 -17.625 114.1875 C-12.96938325 114.74252904 -9.37321219 116.61085192 -5.296875 118.84375 C-2.80198599 120.20504099 -2.80198599 120.20504099 1 121 C0.67 82.06 0.34 43.12 0 3 C-0.99 4.65 -1.98 6.3 -3 8 C-3.66 7.67 -4.32 7.34 -5 7 C-4.21654285 5.82780457 -3.42297164 4.66236332 -2.625 3.5 C-2.18414062 2.8503125 -1.74328125 2.200625 -1.2890625 1.53125 C-0.86367187 1.0259375 -0.43828125 0.520625 0 0 Z " fill="#CF6936" transform="translate(190,69)"/>
<path d="M0 0 C0.84653438 3.0590674 1.24513185 4.99093136 0 8 C-0.99 8.33 -1.98 8.66 -3 9 C-5.41427274 12.19536099 -7.3836103 14.99346695 -8 19 C-8.66 19 -9.32 19 -10 19 C-10.495 20.485 -10.495 20.485 -11 22 C-46.97 22 -82.94 22 -120 22 C-120.33 22.66 -120.66 23.32 -121 24 C-121.33 23.01 -121.66 22.02 -122 21 C-85.7 21 -49.4 21 -12 21 C-11.01 18.525 -11.01 18.525 -10 16 C-9.24099153 14.65013013 -8.44654181 13.3195467 -7.6171875 12.01171875 C-7.17246094 11.30595703 -6.72773438 10.60019531 -6.26953125 9.87304688 C-5.80933594 9.15181641 -5.34914063 8.43058594 -4.875 7.6875 C-4.17310547 6.57665039 -4.17310547 6.57665039 -3.45703125 5.44335938 C-2.30835804 3.62658032 -1.15467631 1.81296963 0 0 Z " fill="#CB6A35" transform="translate(165,109)"/>
<path d="M0 0 C0.96516243 3.00272755 1.22393475 5.04215769 0 8 C-0.99 8.33 -1.98 8.66 -3 9 C-5.41427274 12.19536099 -7.3836103 14.99346695 -8 19 C-8.66 19 -9.32 19 -10 19 C-10.33 19.99 -10.66 20.98 -11 22 C-11.66 21.67 -12.32 21.34 -13 21 C-11.58520403 18.62386831 -10.16822586 16.24908342 -8.75 13.875 C-8.35425781 13.20984375 -7.95851562 12.5446875 -7.55078125 11.859375 C-5.13948537 7.82737205 -2.63950086 3.88660447 0 0 Z " fill="#D86E3C" transform="translate(165,109)"/>
<path d="M0 0 C0.33 0 0.66 0 1 0 C1.33949303 3.64955006 1.32346394 5.49683387 -0.6875 8.625 C-2.98823648 10.98791855 -5.36326363 13.02244772 -8 15 C-6.62859834 11.32305352 -4.96304199 8.04681411 -2.9375 4.6875 C-2.41027344 3.80449219 -1.88304687 2.92148438 -1.33984375 2.01171875 C-0.89769531 1.34785156 -0.45554688 0.68398437 0 0 Z " fill="#DE6F38" transform="translate(174,94)"/>
<path d="M0 0 C1.45922693 0.11409593 2.91740598 0.24165544 4.375 0.375 C5.59316406 0.47941406 5.59316406 0.47941406 6.8359375 0.5859375 C9 1 9 1 11 3 C13.57061311 3.64767793 13.57061311 3.64767793 16 4 C14.390625 5.1484375 14.390625 5.1484375 12 6 C8.984375 5.1015625 8.984375 5.1015625 5.75 3.625 C4.67234375 3.14289063 3.5946875 2.66078125 2.484375 2.1640625 C1.66453125 1.77992188 0.8446875 1.39578125 0 1 C0 0.67 0 0.34 0 0 Z " fill="#CF6830" transform="translate(110,159)"/>
<path d="M0 0 C0.98120464 3.05263664 0.98120464 4.94736336 0 8 C-0.99 8 -1.98 8 -3 8 C-2.45276317 4.62537285 -1.9451 2.91765 0 0 Z " fill="#E27035" transform="translate(165,109)"/>
<path d="M0 0 C0.66 0 1.32 0 2 0 C0.6302836 3.99500618 -1.25722422 6.80009492 -4 10 C-4.4025937 6.47730515 -4.13372795 5.20059192 -2.125 2.1875 C-1.42375 1.465625 -0.7225 0.74375 0 0 Z " fill="#250A02" transform="translate(165,105)"/>
</svg>
