<svg width="80" height="90" viewBox="0 0 80 90" fill="none" xmlns="http://www.w3.org/2000/svg">
<path d="M40.5 8V80" stroke="#CC4400"/>
<path d="M16 37.5H64" stroke="#CC4400"/>
<path d="M49.9191 17.2475L50.5049 17.8333H51.3333H70.3537L60.4292 52.8171L40.5 67.5149L20.5708 52.8171L10.6463 17.8333H29.6667H30.4951L31.0809 17.2475L40.5 7.82843L49.9191 17.2475Z" stroke="url(#paint0_linear_1_460)" stroke-width="4"/>
<path d="M40.5004 77.4645L36.9648 81L40.5004 84.5355L44.0359 81L40.5004 77.4645Z" fill="url(#paint1_linear_1_460)"/>
<path d="M40.5003 34L36.9648 37.5355L40.5003 41.0711L44.0359 37.5355L40.5003 34Z" fill="url(#paint2_linear_1_460)"/>
<defs>
<linearGradient id="paint0_linear_1_460" x1="40.5" y1="5" x2="40.5" y2="70" gradientUnits="userSpaceOnUse">
<stop stop-color="#FF5500"/>
<stop offset="1" stop-color="#FF814F"/>
</linearGradient>
<linearGradient id="paint1_linear_1_460" x1="40.5" y1="77.5" x2="40.5" y2="84.5" gradientUnits="userSpaceOnUse">
<stop stop-color="#FF5500"/>
<stop offset="1" stop-color="#FF814F"/>
</linearGradient>
<linearGradient id="paint2_linear_1_460" x1="40.5" y1="34.0356" x2="40.5" y2="41.0355" gradientUnits="userSpaceOnUse">
<stop stop-color="#FF5500"/>
<stop offset="1" stop-color="#FF814F"/>
</linearGradient>
</defs>
</svg>
